<svg xmlns="http://www.w3.org/2000/svg" viewBox="0 0 800 450" width="800" height="450" role="img" aria-label="Job Dashboard">
  <defs>
    <linearGradient id="jd" x1="0" y1="0" x2="1" y2="1">
      <stop offset="0" stop-color="#1e3a8a"/>
      <stop offset="1" stop-color="#0a0a0f"/>
    </linearGradient>
  </defs>
  <rect width="800" height="450" fill="url(#jd)"/>
  <g fill="none" stroke="#2563eb" stroke-width="2" opacity="0.5">
    <rect x="80" y="120" width="180" height="210" rx="10"/>
    <rect x="310" y="120" width="180" height="210" rx="10"/>
    <rect x="540" y="120" width="180" height="210" rx="10"/>
  </g>
  <g fill="#3b82f6" opacity="0.85">
    <circle cx="170" cy="160" r="6"/><circle cx="400" cy="160" r="6"/><circle cx="630" cy="160" r="6"/>
  </g>
  <g fill="#52525b">
    <rect x="100" y="190" width="140" height="10" rx="5"/>
    <rect x="100" y="215" width="100" height="10" rx="5"/>
    <rect x="330" y="190" width="140" height="10" rx="5"/>
    <rect x="330" y="215" width="120" height="10" rx="5"/>
    <rect x="560" y="190" width="140" height="10" rx="5"/>
    <rect x="560" y="215" width="90" height="10" rx="5"/>
  </g>
  <text x="80" y="80" fill="#fafafa" font-family="Inter, sans-serif" font-size="34" font-weight="700">Job Dashboard</text>
</svg>
